<svg width="347" height="64" viewBox="0 0 347 64" fill="none" xmlns="http://www.w3.org/2000/svg">
<line x1="239" y1="25.6104" x2="239" y2="38.3896" stroke="#938BFF" stroke-width="8" stroke-linecap="round"/>
<line x1="252" y1="18.9609" x2="252" y2="45.0389" stroke="#938BFF" stroke-width="8" stroke-linecap="round"/>
<line x1="265" y1="14.8052" x2="265" y2="49.1948" stroke="#938BFF" stroke-width="8" stroke-linecap="round"/>
<line x1="278" y1="4" x2="278" y2="60" stroke="#938BFF" stroke-width="8" stroke-linecap="round"/>
<line x1="4" y1="-4" x2="32.5829" y2="-4" transform="matrix(-0.025084 0.999685 -0.999788 -0.0205811 222 14.1299)" stroke="#938BFF" stroke-width="8" stroke-linecap="round"/>
<line x1="173" y1="9.81836" x2="173" y2="55.0132" stroke="#938BFF" stroke-width="8" stroke-linecap="round"/>
<line x1="186" y1="5.66211" x2="186" y2="55.0128" stroke="#938BFF" stroke-width="8" stroke-linecap="round"/>
<line x1="199" y1="23.1167" x2="199" y2="41.7141" stroke="#938BFF" stroke-width="8" stroke-linecap="round"/>
<line x1="212" y1="21.4546" x2="212" y2="45.8702" stroke="#938BFF" stroke-width="8" stroke-linecap="round"/>
<line x1="125.129" y1="28.104" x2="125.129" y2="36.7274" stroke="#938BFF" stroke-width="8" stroke-linecap="round"/>
<line x1="26.0235" y1="14.8052" x2="26.0235" y2="49.1948" stroke="#938BFF" stroke-width="8" stroke-linecap="round"/>
<line x1="137.976" y1="23.1169" x2="137.976" y2="40.8832" stroke="#938BFF" stroke-width="8" stroke-linecap="round"/>
<line x1="37.0353" y1="4" x2="37.0353" y2="60" stroke="#938BFF" stroke-width="8" stroke-linecap="round"/>
<line x1="148.988" y1="4" x2="148.988" y2="60" stroke="#938BFF" stroke-width="8" stroke-linecap="round"/>
<line x1="48.0471" y1="9.81824" x2="48.0471" y2="55.013" stroke="#938BFF" stroke-width="8" stroke-linecap="round"/>
<line x1="160" y1="14.8052" x2="160" y2="49.1948" stroke="#938BFF" stroke-width="8" stroke-linecap="round"/>
<line x1="59.0588" y1="18.9611" x2="59.0588" y2="53.3507" stroke="#938BFF" stroke-width="8" stroke-linecap="round"/>
<line x1="70.9882" y1="4" x2="70.9882" y2="60" stroke="#938BFF" stroke-width="8" stroke-linecap="round"/>
<line x1="82" y1="14.8052" x2="82" y2="49.1948" stroke="#938BFF" stroke-width="8" stroke-linecap="round"/>
<line x1="93.0118" y1="4" x2="93.0118" y2="60" stroke="#938BFF" stroke-width="8" stroke-linecap="round"/>
<line x1="104.024" y1="23.1169" x2="104.024" y2="40.8832" stroke="#938BFF" stroke-width="8" stroke-linecap="round"/>
<line x1="114.117" y1="19.792" x2="114.117" y2="44.2076" stroke="#938BFF" stroke-width="8" stroke-linecap="round"/>
</svg>
